<?xml version="1.0" encoding="UTF-8" standalone="no"?>
<!-- Created with Inkscape (http://www.inkscape.org/) -->

<svg
   xmlns:dc="http://purl.org/dc/elements/1.1/"
   xmlns:cc="http://creativecommons.org/ns#"
   xmlns:rdf="http://www.w3.org/1999/02/22-rdf-syntax-ns#"
   xmlns:svg="http://www.w3.org/2000/svg"
   xmlns="http://www.w3.org/2000/svg"
   version="1.1"
   width="400"
   height="93.379776"
   id="svg3438"
   xml:space="preserve"><metadata
     id="metadata3444"><rdf:RDF><cc:Work
         rdf:about=""><dc:format>image/svg+xml</dc:format><dc:type
           rdf:resource="http://purl.org/dc/dcmitype/StillImage" /><dc:title></dc:title></cc:Work></rdf:RDF></metadata><defs
     id="defs3442"><clipPath
       id="clipPath7550"><path
         d="m 18,18 576,0 0,71.28 -576,0 L 18,18 z"
         id="path7552" /></clipPath><clipPath
       id="clipPath7614"><path
         d="m 432,34.04 146.687,0 0,44.28 -146.687,0 0,-44.28 z"
         id="path7616" /></clipPath><clipPath
       id="clipPath7628"><path
         d="m 18,18 576,0 0,71.28 -576,0 L 18,18 z"
         id="path7630" /></clipPath></defs><g
     transform="matrix(1.25,0,0,-1.25,-293.55206,593.64188)"
     id="g3446"><g
       transform="matrix(2.2906916,0,0,2.2906916,-754.87983,295.50608)"
       id="g7714"><path
         d="m 545.4683,63.2622 c -0.234,2.531 -1.469,4.642 -2.356,6.908 -1.041,1.641 -2.52,3.232 -4.112,4.324 -1.243,0.633 -2.264,1.827 -3.742,1.917 -3.173,1.368 -7.052,1.664 -10.722,1.174 -0.369,0.755 -1.226,0.612 -1.92,0.735 -0.977,-0.408 -2.139,-0.368 -3.081,-0.887 -1.518,-0.348 -2.927,-1.48 -3.896,-2.715 -1.684,-1.411 -1.994,-3.182 -3.117,-4.901 -0.123,-0.561 -0.288,-1.536 -0.627,-2.004 -1.5,-6.326 -0.459,-13.181 4.928,-17.261 3.038,-2.254 6.314,-3.957 9.986,-4.703 5.509,-0.521 10.836,0.265 14.467,4.703 3.427,3.396 4.703,7.956 4.192,12.71 m -3.969,-7.863 c -2.11,-3.134 -5.264,-6.542 -9.111,-6.897 -2.211,-0.553 -5.157,-0.644 -7.202,0.366 -4.008,1.663 -8.852,3.96 -10.567,8.518 -2.181,5.142 -0.735,11.324 2.714,15.425 1.437,1.898 3.57,2.775 5.804,3.08 0.163,-0.305 0.348,-0.724 0.735,-0.805 1.314,-0.183 2.407,0.622 3.816,0.439 5.294,-0.296 10.679,-2.174 13.516,-7.193 2.172,-3.641 2.683,-9.231 0.295,-12.933"
         id="path7622"
         style="fill:#000000;fill-opacity:1;fill-rule:nonzero;stroke:none" /><path
         d="m 521.2297,72.5153 c 0.459,-0.877 0.124,-1.99 -0.295,-2.795 -0.532,-0.612 -1.358,-0.786 -2.133,-0.582 -0.417,0.469 -0.306,1.245 -0.224,1.837 0.126,0.85 0.54,1.632 1.47,1.979 0.447,-0.031 0.825,-0.194 1.182,-0.439"
         id="path7634"
         style="fill:#000000;fill-opacity:1;fill-rule:nonzero;stroke:none" /><path
         d="m 448.9553,69.9448 -9.11,-7.417 11.16,-8.6 -2.204,-2.571 -11.895,8.897 -1.244,-0.96 0,-7.273 -3.6,-0.071 0,20.341 3.518,0 0.062,-8.339 11.038,8.634 2.275,-2.641 z"
         id="path7638"
         style="fill:#000000;fill-opacity:1;fill-rule:nonzero;stroke:none" /><path
         d="m 460.777,58.336 c 0.195,-1.683 1.939,-2.937 3.447,-3.305 2.419,-0.286 5.224,-0.125 6.541,2.202 l 0.28,0.749 0.088,0.945 0.07,13.15 3.6,0.071 -0.07,-13.66 c -0.266,-2.449 -1.745,-4.895 -4.113,-5.946 -3.376,-1.551 -8.446,-1.438 -11.24,1.316 -1.48,1.386 -2.09,3.121 -2.205,5.069 l 0,13.221 3.459,0 0.143,-13.812"
         id="path7642"
         style="fill:#000000;fill-opacity:1;fill-rule:nonzero;stroke:none" /><path
         d="m 493.9236,64.3225 6.815,7.754 3.077,0 -0.01,-20.381 -3.491,-0.04 -0.018,14.517 c -0.091,0.122 -6.373,-7.027 -6.373,-7.027 -2.061,2.192 -6.48,7.079 -6.48,7.079 l 0,-14.529 -3.459,0.03 0,20.351 3.163,0 6.776,-7.754"
         id="path7646"
         style="fill:#000000;fill-opacity:1;fill-rule:nonzero;stroke:none" /><path
         d="m 568.3821,57.4528 0,14.256 3.376,0 0,-20.228 -3.016,-0.042 -12.553,14.31 0,-14.237 -3.375,0 0.071,20.341 2.965,0 c 0,0 12.438,-14.481 12.532,-14.4"
         id="path7650"
         style="fill:#000000;fill-opacity:1;fill-rule:nonzero;stroke:none" /><path
         d="m 538.3382,69.0664 c 0.479,-0.499 0.622,-1.233 0.438,-1.917 -0.226,-0.765 -0.947,-1.204 -1.611,-1.54 -0.419,0.009 -0.797,0.081 -1.102,0.367 -0.336,0.929 -0.032,1.959 0.295,2.795 0.429,0.663 1.449,0.938 1.98,0.295"
         id="path7654"
         style="fill:#000000;fill-opacity:1;fill-rule:nonzero;stroke:none" /><path
         d="m 530.9006,52.3474 c 1.073,-0.347 2.45,-0.143 3.235,-1.03 0.061,-0.521 -0.052,-0.981 -0.449,-1.328 -1.123,-0.284 -1.979,0.542 -2.937,0.225 -1.744,0.479 -4.143,-0.478 -5.357,1.103 -0.123,0.438 -0.143,1.082 0.297,1.326 1.826,0.337 3.427,-0.308 5.211,-0.296"
         id="path7658"
         style="fill:#000000;fill-opacity:1;fill-rule:nonzero;stroke:none" /></g></g></svg>