<?xml version="1.0" encoding="UTF-8" standalone="no"?>
<svg
   xmlns:dc="http://purl.org/dc/elements/1.1/"
   xmlns:cc="http://creativecommons.org/ns#"
   xmlns:rdf="http://www.w3.org/1999/02/22-rdf-syntax-ns#"
   xmlns:svg="http://www.w3.org/2000/svg"
   xmlns="http://www.w3.org/2000/svg"
   xmlns:sodipodi="http://sodipodi.sourceforge.net/DTD/sodipodi-0.dtd"
   xmlns:inkscape="http://www.inkscape.org/namespaces/inkscape"
   inkscape:version="1.0 (4035a4f, 2020-05-01)"
   sodipodi:docname="yup-logo.svg"
   id="svg108"
   version="1.1"
   viewBox="0 0 250 88"
   height="88"
   width="250">
  <metadata
     id="metadata114">
    <rdf:RDF>
      <cc:Work
         rdf:about="">
        <dc:format>image/svg+xml</dc:format>
        <dc:type
           rdf:resource="http://purl.org/dc/dcmitype/StillImage" />
        <dc:title>yup-tagline-blue-black</dc:title>
      </cc:Work>
    </rdf:RDF>
  </metadata>
  <defs
     id="defs112" />
  <sodipodi:namedview
     inkscape:current-layer="yup-tagline-blue-black"
     inkscape:window-maximized="0"
     inkscape:window-y="1092"
     inkscape:window-x="1280"
     inkscape:cy="72.5"
     inkscape:cx="142.5"
     inkscape:zoom="3.7929825"
     showgrid="false"
     id="namedview110"
     inkscape:window-height="1046"
     inkscape:window-width="1280"
     inkscape:pageshadow="2"
     inkscape:pageopacity="0"
     guidetolerance="10"
     gridtolerance="10"
     objecttolerance="10"
     borderopacity="1"
     bordercolor="#666666"
     pagecolor="#ffffff" />
  <!-- Generator: Sketch 63.1 (92452) - https://sketch.com -->
  <title
     id="title100">yup-tagline-blue-black</title>
  <desc
     id="desc102">Created with Sketch.</desc>
  <g
     fill-rule="evenodd"
     fill="none"
     stroke-width="1"
     stroke="none"
     id="yup-tagline-blue-black">
    <g
       fill="#2e69e1"
       transform="scale(1.956767,1.9555556)"
       id="brand/wordmark/blue">
      <path
         id="yup-wordmark"
         d="m 85.545287,0 c 0.301039,0 0.544958,0.24439588 0.544958,0.54602235 v 0 19.35920565 c 0.04041,1.112605 -0.022,4.528001 -1.87287,8.757766 -1.816385,4.151339 -5.832912,10.064532 -14.651881,14.659513 v 0 L 66.345461,45 63.125851,43.322507 C 54.306882,38.727526 50.290356,32.814333 48.473759,28.662994 46.62289,24.433229 46.560482,21.017833 46.600889,19.905228 v 0 V 0.54602235 C 46.600889,0.24439588 46.844808,0 47.145635,0 v 0 z m 28.657473,0 c 7.43838,0 13.68403,6.0988747 13.5571,13.550511 -0.12334,7.239248 -6.03876,13.090123 -13.29266,13.090123 v 0 h -10.39503 v 8.621685 h 6.8913 c 0.35816,0 0.64841,0.291028 0.64841,0.649885 v 0 3.974771 c 0,0.358857 -0.29025,0.649886 -0.64841,0.649886 v 0 H 92.800887 c -0.358158,0 -0.648619,-0.291029 -0.648619,-0.649886 v 0 -3.974771 c 0,-0.358857 0.290461,-0.649885 0.648619,-0.649885 v 0 h 6.007019 V 5.274754 h -6.007019 c -0.358158,0 -0.648619,-0.2912402 -0.648619,-0.6500973 v 0 -3.9747714 C 92.152268,0.29102822 92.442729,0 92.800887,0 V 0 Z M 16.026546,0 c 0.378255,0 0.685005,0.30734954 0.685005,0.68634332 v 0 3.90185538 c 0,0.3792058 -0.30675,0.6865553 -0.685005,0.6865553 v 0 h -4.325604 l 8.789563,9.318838 8.789774,-9.318838 h -4.314391 c -0.378255,0 -0.685006,-0.3073495 -0.685006,-0.6865553 v 0 -3.90185538 C 24.280882,0.30734954 24.587633,0 24.965888,0 v 0 h 15.34154 c 0.378255,0 0.685005,0.30734954 0.685005,0.68634332 v 0 3.90185538 c 0,0.3792058 -0.30675,0.6865553 -0.685005,0.6865553 v 0 H 36.524032 L 23.127501,19.477906 v 15.772543 h 7.690127 c 0.393698,0 0.71293,0.319855 0.71293,0.714322 v 0 3.845897 c 0,0.394467 -0.319232,0.714323 -0.71293,0.714323 v 0 H 10.172902 c -0.3936987,0 -0.7131422,-0.319856 -0.7131422,-0.714323 v 0 -3.845897 c 0,-0.394467 0.3194435,-0.714322 0.7131422,-0.714322 v 0 h 7.690127 V 19.487868 L 4.4569778,5.274754 H 0.68500542 C 0.30675042,5.274754 0,4.9674045 0,4.5881987 v 0 -3.90185538 C 0,0.30734954 0.30675042,0 0.68500542,0 v 0 z m 50.740538,20.485801 c -0.210494,-0.136294 -0.477896,-0.136294 -0.688601,0 -3.284345,2.126223 -7.029239,3.462663 -10.778787,3.781247 -0.605673,0.05151 -1.20775,0.07716 -1.803269,0.07716 -0.338907,0 -0.67464,-0.01314 -1.009527,-0.02946 0.200552,0.690583 0.461819,1.43882 0.808129,2.230298 1.476422,3.374274 4.802019,8.212168 12.259439,12.097702 v 0 l 0.791205,0.41206 0.791204,-0.41206 c 7.45742,-3.885534 10.782807,-8.723428 12.259228,-12.097702 0.344407,-0.787239 0.604616,-1.531449 0.804744,-2.219064 -0.282634,0.01166 -0.566325,0.01823 -0.851709,0.01823 -0.59573,0 -1.197384,-0.02565 -1.803481,-0.07716 -3.749336,-0.318584 -7.494018,-1.655024 -10.778575,-3.781247 z M 114.4672,5.274754 h -10.39503 v 16.091338 h 10.19765 c 4.34845,0 8.05717,-3.381269 8.22176,-7.735034 0.17305,-4.5771764 -3.49336,-8.356304 -8.02438,-8.356304 z m -34.186173,0 h -27.87092 c -0.301038,0 -0.544958,0.2443959 -0.544958,0.5458104 v 0 13.1420546 c 5.035573,0.526097 10.38805,-1.565363 14.117077,-5.057702 0.249843,-0.234009 0.631483,-0.234009 0.881326,0 3.69116,3.456941 8.972556,5.540982 13.962433,5.073175 v 0 -13.1575276 c 0,-0.3014145 -0.244131,-0.5458104 -0.544958,-0.5458104 z" />
    </g>
  </g>
</svg>
